<svg width="32" height="32" viewBox="0 0 32 32" fill="none" xmlns="http://www.w3.org/2000/svg">
  <rect width="32" height="32" rx="8" fill="url(#paint0_linear)"/>
  <path d="M11 21.5C11 22.3284 11.6716 23 12.5 23H19.5C20.3284 23 21 22.3284 21 21.5V19.5C21 18.6716 20.3284 18 19.5 18H14C13.1716 18 12.5 17.3284 12.5 16.5C12.5 15.6716 13.1716 15 14 15H19.5C20.3284 15 21 14.3284 21 13.5V11.5C21 10.6716 20.3284 10 19.5 10H12.5C11.6716 10 11 10.6716 11 11.5V13.5C11 14.3284 11.6716 15 12.5 15H18C18.8284 15 19.5 15.6716 19.5 16.5C19.5 17.3284 18.8284 18 18 18H12.5C11.6716 18 11 18.6716 11 19.5V21.5Z" fill="white"/>
  <defs>
    <linearGradient id="paint0_linear" x1="0" y1="0" x2="32" y2="32" gradientUnits="userSpaceOnUse">
      <stop stop-color="#2563EB"/>
      <stop offset="1" stop-color="#4F46E5"/>
    </linearGradient>
  </defs>
</svg>
